<svg width="48" height="48" viewBox="0 0 48 48" fill="none" xmlns="http://www.w3.org/2000/svg">
<rect width="48" height="48" fill="white" fill-opacity="0.01"/>
<path fill-rule="evenodd" clip-rule="evenodd" d="M16.252 20H8C5.774 20 4 21.79 4 24V31.46C4 34.08 7.748 35.566 12 35.92V29.992C12.0032 28.4024 12.6366 26.879 13.7614 25.7557C14.8861 24.6325 16.4104 24.0011 18 24H18.708C17.5078 22.9422 16.6523 21.5489 16.252 20ZM31.748 20H40C42.21 20 44 21.77 44 24V31.46C44 34.08 40.252 35.566 36 35.92V29.992C35.9979 28.4021 35.3648 26.878 34.2398 25.7545C33.1148 24.6311 31.5899 24 30 24H29.292C30.4922 22.9422 31.3477 21.5489 31.748 20ZM19.934 11.108C19.75 9.88612 19.1931 8.75084 18.3396 7.8573C17.4861 6.96376 16.3775 6.35554 15.1653 6.11574C13.9531 5.87594 12.6965 6.01625 11.567 6.51751C10.4376 7.01877 9.49042 7.85653 8.855 8.91632C8.21958 9.97611 7.92687 11.2062 8.01686 12.4386C8.10685 13.671 8.57515 14.8456 9.35779 15.8018C10.1404 16.7581 11.1992 17.4494 12.3895 17.7812C13.5798 18.1131 14.8435 18.0694 16.008 17.656C16.0647 16.3238 16.4536 15.0269 17.1392 13.8833C17.8249 12.7397 18.7856 11.7857 19.934 11.108ZM31.994 17.656C33.1584 18.0692 34.4219 18.1128 35.612 17.781C36.8021 17.4492 37.8607 16.7581 38.6433 15.802C39.4259 14.846 39.8943 13.6717 39.9845 12.4395C40.0747 11.2073 39.7823 9.9773 39.1473 8.9175C38.5122 7.8577 37.5655 7.01978 36.4364 6.51819C35.3073 6.0166 34.0509 5.87579 32.8388 6.11501C31.6267 6.35422 30.518 6.96179 29.6641 7.85473C28.8102 8.74766 28.2528 9.88242 28.068 11.104C29.2175 11.7814 30.1791 12.7359 30.8649 13.8804C31.5507 15.0249 31.9389 16.3229 31.994 17.656Z" fill="#2E384C"/>
<path fill-rule="evenodd" clip-rule="evenodd" d="M14 30C14 27.79 15.774 26 18 26H30C32.21 26 34 27.77 34 30V37.46C34 43.514 14 43.514 14 37.46V30Z" fill="#2E384C"/>
<path d="M24 24C27.3137 24 30 21.3137 30 18C30 14.6863 27.3137 12 24 12C20.6863 12 18 14.6863 18 18C18 21.3137 20.6863 24 24 24Z" fill="#2E384C"/>
</svg>
