<svg width="33" height="32" viewBox="0 0 33 32" fill="none" xmlns="http://www.w3.org/2000/svg">
<g clip-path="url(#clip0_127_1996)">
<path d="M27.5892 5.98914C25.5492 5.06914 23.3626 4.38914 21.0759 4.00247C21.0555 3.99856 21.0345 4.00108 21.0156 4.00968C20.9967 4.01828 20.981 4.03253 20.9706 4.05047C20.6906 4.54247 20.3786 5.1838 20.1599 5.69047C17.7347 5.32812 15.2691 5.32812 12.8439 5.69047C12.6004 5.12895 12.3257 4.58143 12.0212 4.05047C12.0109 4.03231 11.9953 4.01774 11.9765 4.00868C11.9577 3.99963 11.9365 3.99653 11.9159 3.9998C9.63058 4.38647 7.44391 5.06647 5.40258 5.9878C5.38501 5.99517 5.37012 6.00773 5.35991 6.0238C1.21058 12.1238 0.0732417 18.0731 0.631908 23.9478C0.633463 23.9622 0.637929 23.9761 0.645035 23.9887C0.652141 24.0013 0.661738 24.0124 0.673242 24.0211C3.0951 25.7844 5.79636 27.1276 8.66391 27.9945C8.6839 28.0006 8.70528 28.0006 8.72526 27.9944C8.74524 27.9882 8.76289 27.9762 8.77591 27.9598C9.39191 27.1331 9.94124 26.2598 10.4106 25.3425C10.4386 25.2891 10.4119 25.2251 10.3559 25.2038C9.49458 24.8794 8.66002 24.488 7.85991 24.0331C7.84553 24.0249 7.83342 24.0133 7.82465 23.9992C7.81589 23.9852 7.81074 23.9692 7.80969 23.9527C7.80863 23.9362 7.81169 23.9196 7.81859 23.9046C7.8255 23.8895 7.83603 23.8764 7.84924 23.8665C8.01724 23.7425 8.18524 23.6131 8.34524 23.4838C8.35964 23.4722 8.37699 23.4648 8.39535 23.4624C8.41372 23.4601 8.43237 23.4628 8.44924 23.4705C13.6852 25.8225 19.3559 25.8225 24.5306 23.4705C24.5475 23.4624 24.5663 23.4592 24.585 23.4614C24.6036 23.4635 24.6212 23.4708 24.6359 23.4825C24.7959 23.6131 24.9626 23.7425 25.1319 23.8665C25.1453 23.8762 25.156 23.8892 25.1631 23.9041C25.1702 23.919 25.1735 23.9354 25.1727 23.952C25.1719 23.9685 25.1671 23.9845 25.1585 23.9987C25.15 24.0129 25.1381 24.0247 25.1239 24.0331C24.3266 24.4918 23.4972 24.8798 22.6266 25.2025C22.6132 25.2073 22.601 25.215 22.5908 25.2249C22.5807 25.2348 22.5727 25.2468 22.5675 25.2601C22.5624 25.2733 22.5601 25.2875 22.5608 25.3018C22.5616 25.316 22.5654 25.3298 22.5719 25.3425C23.0519 26.2585 23.6012 27.1305 24.2052 27.9585C24.2178 27.9755 24.2353 27.9882 24.2553 27.9948C24.2754 28.0015 24.297 28.0019 24.3172 27.9958C27.1897 27.1313 29.8954 25.7875 32.3199 24.0211C32.3317 24.0129 32.3417 24.0022 32.349 23.9897C32.3564 23.9773 32.361 23.9635 32.3626 23.9491C33.0292 17.1571 31.2452 11.2558 27.6306 6.02647C27.6217 6.00947 27.607 5.99623 27.5892 5.98914ZM11.1932 20.3705C9.61724 20.3705 8.31724 18.9451 8.31724 17.1971C8.31724 15.4478 9.59191 14.0238 11.1932 14.0238C12.8066 14.0238 14.0946 15.4598 14.0692 17.1971C14.0692 18.9465 12.7946 20.3705 11.1932 20.3705ZM21.8266 20.3705C20.2492 20.3705 18.9506 18.9451 18.9506 17.1971C18.9506 15.4478 20.2239 14.0238 21.8266 14.0238C23.4399 14.0238 24.7279 15.4598 24.7026 17.1971C24.7026 18.9465 23.4412 20.3705 21.8266 20.3705Z" fill="#5BAE81"/>
</g>
<defs>
<clipPath id="clip0_127_1996">
<rect width="32" height="32" fill="white" transform="translate(0.5)"/>
</clipPath>
</defs>
</svg>
