<svg id="Camada_1" data-name="Camada 1" xmlns="http://www.w3.org/2000/svg" viewBox="0 0 469.29 469.25"><defs><style>.cls-1{fill:#fff;}</style></defs><path class="cls-1" d="M472.15,237.74C472,367.13,366.68,472.24,237.39,472.13,107.81,472,2.5,366.47,2.86,237S108.58,2.61,237.86,2.88,472.35,108.46,472.15,237.74ZM77.61,232.62c11.26,0,22.53-.14,33.79.09,3.34.06,4.12-1.07,4.19-4.41.61-30,6.83-58.76,17.3-86.54,1.3-3.44.9-4.56-2.37-5.92A264.52,264.52,0,0,1,85,111.65c-2.82-1.88-3.8-.89-5.4,1.37-24.24,34.27-37.13,72.81-39.39,115.43-.19,3.67,1,4.28,4.13,4.24C55.41,232.55,66.5,232.62,77.61,232.62Zm320.83,0c11,0,22-.09,33,.06,3,0,4-.57,3.86-3.83-2.14-39.4-14.38-75.23-37.35-107.38-1.78-2.5-3-2.56-5.52-1.1a308.75,308.75,0,0,1-45.93,21.81c-3.44,1.29-3.59,2.5-2.34,5.64,10.32,26,16.52,53,17.27,81.09.09,3.15,1.06,3.86,4,3.82C376.5,232.56,387.5,232.62,398.44,232.62ZM78.56,254.11c-11.15,0-22.32.23-33.46-.11-4.35-.13-4.81,1.46-4.38,5.13A199.31,199.31,0,0,0,82.83,361.06c2,2.48,3.32,2.71,6,1a254.94,254.94,0,0,1,43.82-21.41c4.15-1.55,4.15-3.17,2.66-6.74-10.11-24.25-16.76-49.41-18.88-75.65-.29-3.55-1.68-4.31-4.94-4.26C100.5,254.22,89.55,254.11,78.56,254.11Zm319.72,0c-11,0-22,.13-32.94-.07-3.19-.06-4.34.9-4.58,4.06-2,26.41-8.64,51.72-18.54,76.21-1.06,2.62-.76,3.64,2,4.65a313.41,313.41,0,0,1,44.69,20.66c2.09,1.16,3.29,1.33,4.92-.78a198.52,198.52,0,0,0,40.55-100.91c.35-3.19-.56-4-3.66-3.9C419.91,254.22,409.09,254.11,398.28,254.11Zm-107-21.49c13.15,0,26.31-.14,39.45.09,3.74.07,4.81-.85,4.58-4.66a226.47,226.47,0,0,0-16.5-72.62c-1.08-2.66-2.17-3.53-5.1-2.73a273.69,273.69,0,0,1-62.52,9.35c-3,.11-3.88.91-3.86,4q.21,31.2,0,62.42c0,3.69,1.21,4.28,4.52,4.24C265,232.56,278.15,232.62,291.3,232.62Zm-107.61,0h38.48c2.39,0,4,0,4-3.29-.14-21.48-.09-43,0-64.45,0-2.22-.57-3.23-3-3.36a276.07,276.07,0,0,1-60.4-10.25c-2.58-.73-3.42-.1-4.35,2.17a221,221,0,0,0-16.75,75.18c-.15,3.36.87,4.15,4.1,4.11,12.66-.17,25.32-.06,38-.06ZM291.5,254.11c-13.31,0-26.63.1-39.94-.07-3.21,0-4.18.79-4.16,4.1q.24,28.71,0,57.41c0,3.09.64,4.23,4,4.35a279.51,279.51,0,0,1,61.07,8.92c2.4.62,3.46.45,4.47-2A244.9,244.9,0,0,0,334.5,258c.3-3-.34-4-3.59-4C317.74,254.23,304.59,254.11,291.5,254.11Zm-107.09,0c-12.48,0-25,.18-37.43-.11-4-.09-4.66,1.15-4.23,4.78A254.08,254.08,0,0,0,160.81,327c1.18,2.82,2.28,3.57,5.46,2.7a259.7,259.7,0,0,1,56-9.2c3.5-.18,4-1.53,4-4.53q-.15-28.69,0-57.39c0-3.41-.83-4.57-4.41-4.5-12.55.21-25,.08-37.5.08Zm90-211c5.18,5.62,9.49,10.15,13.65,14.83a321.48,321.48,0,0,1,41.44,58.4c.76,1.37.9,4,3.69,2.92a308.5,308.5,0,0,0,44.89-21.08c-29-28.66-62.87-46.87-103.72-55.12ZM200,43.75C161.3,51,127.91,68.42,99.41,95.93A258.4,258.4,0,0,0,136,115.15c9,3.91,9,3.92,13.78-4.4,1.07-1.87,2.17-3.74,3.28-5.59C166.29,82.89,182.18,62.7,200,43.7ZM304,353.94a263.55,263.55,0,0,0-52.24-7.7c-3.59-.16-4.38.8-4.36,4.27.15,25.82.07,51.63.12,77.45,0,1.11-.85,2.64,1,3.5,21.1-23.84,40.12-49.13,55.4-77.57ZM305.5,128c-15.45-27.58-34.66-51.67-58.11-73.84V134c0,2.56,1.37,2.52,3.17,2.42A264.51,264.51,0,0,0,305.5,128ZM226.08,55.84a313,313,0,0,0-53.49,68.36c-1.57,2.72-.91,3.51,1.83,4.2a309.11,309.11,0,0,0,47.14,7.82c4.12.37,4.61-1,4.59-4.49-.15-19.79-.07-39.57-.07-59.36Zm-32.44,374.6a4.93,4.93,0,0,0-.34-1.32c-16.34-20.24-31.23-41.45-43.49-64.42-1.33-2.48-2.69-1.77-4.4-1.11A270.51,270.51,0,0,0,119,375.29c-5,2.56-10,4.93-14.91,8.4a197.9,197.9,0,0,0,89.6,46.75ZM226.08,427v-6.08c0-20.29,0-40.58,0-60.87,0-4.44,2-10.38-.89-12.92s-8.59-.06-13,.42a224.63,224.63,0,0,0-37.88,7.11c14.37,26,31.63,49.37,51.81,72.34Zm58.36,2.8c33.53-8.6,61.87-23.85,86.47-46.17,1.92-1.74,2.47-2.61-.35-4a371.13,371.13,0,0,0-37.76-16.83c-2.29-.87-3.45-.48-4.65,1.81-2.91,5.6-6.11,11.05-9.34,16.48-9.9,16.75-21.37,32.44-34.31,48.76Z" transform="translate(-2.85 -2.87)"/></svg>