<svg width="576" height="558" viewBox="0 0 576 558" fill="none" xmlns="http://www.w3.org/2000/svg">
<path d="M423.797 43.7637L51.4165 82.9683L101.385 557.593L473.766 518.388L423.797 43.7637Z" fill="#5B667C"/>
<path d="M24.4257 78.5086C-16.7847 160.611 -3.74731 264.245 47.7512 340.313C99.2497 416.382 184.926 465.623 275.016 483.566C339.335 496.357 408.516 493.695 467.278 464.653C526.041 435.612 572.243 377.009 575.803 311.533C577.134 286.789 571.881 260.54 555.386 242.077C529.036 212.587 484.034 211.56 444.517 212.775C405 213.991 360.027 213.065 333.533 183.691C313.188 161.132 310.193 128.386 299.47 99.953C281.238 51.609 237.25 13.8569 186.706 3.17808C179.692 1.68832 172.578 0.721004 165.421 0.284091C109.813 -3.18869 57.0843 25.4184 27.9563 72.8798L24.4257 78.5086Z" fill="#2E384C" fill-opacity="0.2"/>
<path d="M438.003 53.9161L69.3374 109.211L134.441 543.273L503.106 487.978L438.003 53.9161Z" fill="#2E384C"/>
<path d="M567.033 124.335C567.033 124.335 566.932 124.595 566.701 125.087L565.688 127.272L561.694 135.708C558.221 142.943 553.113 153.434 546.761 166.341C534.056 192.141 516.273 227.607 496.391 266.763C476.509 305.918 458.625 341.427 445.746 367.169L430.582 397.687L426.559 405.978L425.46 408.134C425.214 408.611 425.069 408.843 425.069 408.843C425.069 408.843 425.17 408.582 425.387 408.09L426.415 405.906L430.408 397.556C433.881 390.321 438.974 379.831 445.327 366.924C458.031 341.109 475.873 305.585 495.711 266.401C515.549 227.216 533.463 191.765 546.356 166.008C552.737 153.145 557.932 142.741 561.506 135.491C563.286 131.917 564.675 129.125 565.644 127.2L566.73 125.058C566.918 124.581 567.033 124.335 567.033 124.335Z" fill="#2E384C"/>
<path d="M504.784 179.393C505.075 179.952 505.298 180.545 505.449 181.158C505.826 182.301 506.317 184.052 506.896 186.063C508.083 190.231 509.559 196.019 511.078 202.429C512.597 208.839 513.885 214.497 514.913 218.881C515.39 220.849 515.781 222.513 516.099 223.859C516.284 224.458 516.41 225.073 516.475 225.696C516.182 225.136 515.954 224.543 515.795 223.931C515.419 222.788 514.927 221.109 514.348 219.026C513.205 214.844 511.802 209.041 510.282 202.617C508.763 196.192 507.388 190.578 506.332 186.208C505.854 184.24 505.449 182.576 505.117 181.245C504.95 180.639 504.839 180.019 504.784 179.393Z" fill="#2E384C"/>
<path d="M518.877 226.16C518.877 225.943 530.613 222.369 545.227 218.158C559.842 213.947 571.751 210.735 571.809 210.923C571.866 211.111 560.073 214.728 545.459 218.925C530.844 223.121 518.935 226.377 518.877 226.16Z" fill="#2E384C"/>
<path d="M485.698 284.937C486.334 284.836 486.98 284.807 487.622 284.85H492.846C497.259 284.85 503.351 284.85 510.065 284.59C516.779 284.329 522.871 283.91 527.255 283.562L532.465 283.157C533.104 283.078 533.75 283.078 534.389 283.157C533.774 283.335 533.145 283.456 532.508 283.519C531.278 283.707 529.513 283.938 527.313 284.184C522.972 284.691 516.837 285.212 510.094 285.458C503.351 285.704 497.259 285.646 492.831 285.458C490.632 285.371 488.852 285.284 487.608 285.183C486.964 285.169 486.324 285.086 485.698 284.937V284.937Z" fill="#2E384C"/>
<path d="M463.66 245.434C464.052 245.876 464.392 246.361 464.673 246.881C465.353 247.995 466.192 249.384 467.191 251.005C469.289 254.506 470.996 260.511 475.236 264.751C478.333 270.148 481.111 275.054 483.079 278.628C483.976 280.292 484.743 281.724 485.38 282.867C485.695 283.373 485.943 283.918 486.117 284.488C485.726 284.046 485.386 283.56 485.105 283.041C484.41 281.932 483.571 280.557 482.587 278.917C480.489 275.43 477.638 270.568 474.542 265.171C471.445 259.773 468.667 254.868 466.699 251.308L464.398 247.127C464.077 246.598 463.829 246.028 463.66 245.434V245.434Z" fill="#2E384C"/>
<path d="M427.775 293.604C428.264 294.187 428.695 294.817 429.063 295.485L432.304 300.752C435.024 305.223 438.714 311.43 442.766 318.304C446.817 325.177 450.42 331.428 453.01 335.957C454.226 338.142 455.253 339.951 456.035 341.369C456.432 342.013 456.771 342.691 457.048 343.395C456.562 342.813 456.131 342.189 455.76 341.528L452.519 336.246C449.798 331.79 446.108 325.582 442.071 318.709C438.034 311.836 434.402 305.585 431.812 301.041C430.597 298.871 429.584 297.047 428.788 295.644C428.392 294.994 428.053 294.312 427.775 293.604V293.604Z" fill="#2E384C"/>
<path d="M456.686 342.006C457.49 341.886 458.303 341.828 459.116 341.833L465.744 341.63C471.329 341.427 479.056 341.138 487.564 340.588C496.073 340.038 503.785 339.344 509.356 338.794L515.954 338.157C516.759 338.038 517.572 337.989 518.385 338.012C517.601 338.217 516.803 338.367 515.998 338.461C514.45 338.707 512.192 339.025 509.414 339.358C503.858 340.053 496.16 340.805 487.622 341.384C479.085 341.963 471.358 342.151 465.744 342.194C462.951 342.194 460.679 342.194 459.116 342.194C458.302 342.211 457.488 342.148 456.686 342.006V342.006Z" fill="#2E384C"/>
<path d="M342.126 392.204C381.88 352.45 381.88 287.996 342.126 248.242C302.373 208.489 237.919 208.489 198.165 248.242C158.411 287.996 158.411 352.45 198.165 392.204C237.919 431.958 302.373 431.958 342.126 392.204Z" fill="white"/>
<path d="M328.467 182.633C326.687 184.866 325.601 187.573 325.344 190.418C325.087 193.262 325.67 196.12 327.02 198.636C328.294 200.923 330.233 202.977 330.522 205.568C330.999 209.778 326.919 213.569 327.628 217.766C328.077 220.66 330.522 222.642 331.853 225.203C332.676 226.869 333.008 228.734 332.811 230.581C332.613 232.429 331.895 234.182 330.739 235.636C328.887 237.893 325.978 239.326 324.777 242.003C323.88 243.971 324.097 246.344 323.33 248.326C322.647 249.878 321.574 251.227 320.214 252.241C318.855 253.256 317.257 253.901 315.574 254.114C312.191 254.521 308.763 254.33 305.446 253.55L306.184 249.889C305.556 250.861 304.701 251.666 303.692 252.233C302.684 252.8 301.552 253.113 300.396 253.145C298.078 253.191 295.77 252.849 293.566 252.132C292.191 245.924 290.845 239.369 292.784 233.321C294.55 227.88 298.717 223.626 302.19 219.083C306.046 214.038 309.132 208.45 311.349 202.5C312.941 198.231 314.084 193.818 316.312 189.766C318.541 185.715 322.1 182.213 326.557 181.359" fill="#2E384C"/>
<path d="M394.668 268.137L374.526 269.584L374.323 264.403C374.054 261.836 374.667 259.254 376.06 257.082C376.282 256.699 376.443 256.284 376.537 255.852C376.682 254.318 374.424 246.62 373.643 243.798C372.659 240.412 374.584 238.618 375.336 240.007C376.696 242.539 380.299 253.406 381.428 254.477C382.557 255.548 381.905 249.861 381.905 249.861C380.14 237.894 379.373 236.158 381.5 235.709C383.946 235.189 386.637 253.001 386.637 253.001C386.637 253.001 386.275 250.512 388.185 250.006C390.095 249.499 390.978 251.945 390.978 251.945C390.732 250.686 392.541 250.498 392.541 250.498C397.055 251.12 394.711 268.296 394.711 268.296L374.569 269.743L364.918 337.1L354.615 321.314L327.73 340.501L351.967 369.441C354.072 371.946 356.722 373.938 359.713 375.264C362.705 376.591 365.96 377.217 369.23 377.095V377.095C374.576 376.901 379.657 374.715 383.475 370.967C387.293 367.219 389.571 362.179 389.864 356.837L394.668 268.137Z" fill="#EB996E"/>
<path d="M378.909 268.324C378.823 268.223 379.893 267.282 381.326 265.517C382.158 264.484 382.912 263.391 383.583 262.247C383.984 261.571 384.351 260.876 384.683 260.163C385.09 259.497 385.328 258.742 385.377 257.964C385.372 257.783 385.314 257.608 385.212 257.459C385.109 257.31 384.966 257.194 384.799 257.124C384.403 257.058 383.996 257.124 383.641 257.313C382.85 257.685 382.099 258.136 381.398 258.658C380.266 259.514 379.287 260.557 378.504 261.74L378.273 262.073L378.099 261.726C377.685 260.98 377.146 260.309 376.507 259.744C376.507 259.744 377.607 260.004 378.548 261.567H378.142C378.884 260.273 379.866 259.133 381.036 258.21C381.767 257.642 382.558 257.157 383.395 256.763C383.91 256.49 384.504 256.408 385.074 256.531C385.379 256.639 385.647 256.833 385.845 257.09C386.042 257.347 386.162 257.655 386.188 257.978C386.161 258.909 385.892 259.817 385.406 260.612C385.054 261.332 384.663 262.032 384.234 262.71C383.52 263.872 382.701 264.966 381.789 265.98C380.963 266.913 379.99 267.705 378.909 268.324Z" fill="#D1734A"/>
<path d="M386.882 253.955C387.005 255.187 387.005 256.428 386.882 257.659C386.882 258.875 386.752 260.221 386.665 261.653C386.608 262.414 386.608 263.178 386.665 263.939C386.665 264.648 387.345 265.256 387.852 264.967C388.358 264.677 388.648 263.809 388.865 263.042C389.082 262.275 389.255 261.508 389.414 260.77C389.733 259.323 389.964 257.963 390.181 256.849C390.324 255.619 390.611 254.41 391.035 253.246C391.033 254.483 390.922 255.718 390.702 256.936C390.558 258.065 390.384 259.41 390.095 260.915C389.964 261.653 389.791 262.434 389.574 263.245C389.504 263.721 389.341 264.179 389.092 264.592C388.844 265.004 388.516 265.363 388.127 265.647C387.862 265.768 387.568 265.806 387.281 265.757C386.995 265.708 386.73 265.574 386.52 265.372C386.151 265.022 385.924 264.548 385.884 264.041C385.838 263.229 385.867 262.416 385.971 261.61C386.115 260.182 386.246 258.851 386.361 257.616C386.408 256.381 386.582 255.154 386.882 253.955V253.955Z" fill="#D1734A"/>
<path d="M390.326 259.093C390.442 259.093 390.152 259.932 390.239 261.234C390.265 261.952 390.48 262.651 390.861 263.26C391.107 263.506 391.281 263.52 391.512 263.26C391.773 262.867 391.996 262.45 392.178 262.016C393.096 259.732 393.818 257.375 394.334 254.969C394.56 257.511 394.058 260.066 392.887 262.334C392.679 262.84 392.422 263.325 392.12 263.781C392.014 263.918 391.878 264.03 391.723 264.107C391.567 264.185 391.397 264.227 391.223 264.23C391.058 264.223 390.896 264.181 390.748 264.106C390.601 264.031 390.472 263.925 390.369 263.795C390.08 263.41 389.896 262.956 389.834 262.479C389.759 262.097 389.725 261.709 389.733 261.321C389.689 259.816 390.196 259.049 390.326 259.093Z" fill="#D1734A"/>
<path d="M305.503 385.719L307.384 415.007C250.098 436.958 207.542 400.537 207.542 400.537L216.108 374.332L217.555 328.578L206.558 340.776L201.363 336.435L175.158 314.614L169.529 309.911L196.776 281.16C231.229 244.073 258.042 255.403 258.042 255.403L298.326 259.18C298.326 259.18 326.195 263.13 339.681 287.555C350.664 307.437 362.616 328.491 362.616 328.491L328.091 353.09L317.108 332.919L305.503 385.719Z" fill="#2E384C"/>
<path d="M168.357 319.837C168.357 321.559 168.357 323.266 168.459 325.003C168.696 331.797 169.617 338.55 171.208 345.159V345.347C171.411 346.172 171.642 346.982 171.874 347.793C172.771 350.976 173.957 353.783 175.086 356.865C175.231 357.256 175.375 357.632 175.535 358.023C179.181 357.068 188.861 347.894 200.683 335.927L174.449 314.049C171.078 317.724 169.486 319.403 168.357 319.837Z" fill="#EB996E"/>
<path d="M294.665 262.984C296.112 253 297.747 242.524 297.747 242.524C297.747 242.524 310.901 242.162 315.878 225.753C320.624 210.097 323.113 172.779 323.113 172.779C314.492 167.853 304.571 165.682 294.681 166.556C284.79 167.43 275.404 171.308 267.78 177.67L257.651 258.918C256.479 268.338 263.656 276.861 273.771 278.047C283.972 279.234 293.377 272.491 294.665 262.984Z" fill="#EB996E"/>
<path d="M314.344 200.981C314.272 201.543 313.984 202.055 313.541 202.409C313.098 202.762 312.535 202.93 311.971 202.877C311.694 202.86 311.422 202.789 311.172 202.666C310.923 202.542 310.7 202.371 310.518 202.16C310.336 201.95 310.198 201.705 310.112 201.441C310.026 201.176 309.994 200.897 310.018 200.62C310.094 200.06 310.383 199.552 310.826 199.201C311.268 198.851 311.829 198.685 312.391 198.738C312.667 198.755 312.938 198.826 313.186 198.948C313.435 199.071 313.656 199.241 313.838 199.45C314.02 199.659 314.159 199.902 314.245 200.165C314.332 200.428 314.366 200.705 314.344 200.981V200.981Z" fill="#2E384C"/>
<path d="M318.165 199.057C317.861 199.303 316.4 197.87 314.084 197.61C311.769 197.35 309.903 198.232 309.743 197.914C309.584 197.596 309.975 197.292 310.785 196.858C311.885 196.304 313.127 196.102 314.345 196.279C315.552 196.444 316.676 196.986 317.557 197.827C318.151 198.406 318.31 198.97 318.165 199.057Z" fill="#2E384C"/>
<path d="M290.585 198.13C290.513 198.691 290.224 199.202 289.781 199.553C289.337 199.904 288.775 200.069 288.212 200.011C287.935 199.997 287.663 199.927 287.414 199.805C287.165 199.684 286.942 199.513 286.76 199.304C286.578 199.095 286.439 198.851 286.353 198.587C286.267 198.323 286.235 198.045 286.259 197.769C286.331 197.207 286.619 196.695 287.062 196.341C287.505 195.987 288.067 195.82 288.632 195.873C288.909 195.891 289.179 195.964 289.428 196.088C289.677 196.212 289.898 196.384 290.08 196.594C290.262 196.804 290.4 197.048 290.486 197.311C290.573 197.575 290.607 197.854 290.585 198.13V198.13Z" fill="#2E384C"/>
<path d="M293.884 196.568C293.58 196.814 292.119 195.382 289.804 195.121C287.488 194.861 285.622 195.729 285.463 195.411C285.304 195.092 285.694 194.803 286.505 194.369C287.604 193.817 288.846 193.615 290.064 193.79C291.274 193.944 292.402 194.488 293.276 195.338C293.855 195.917 294.029 196.467 293.884 196.568Z" fill="#2E384C"/>
<path d="M299.918 214.887C301.194 214.672 302.492 214.619 303.781 214.728C304.375 214.728 304.954 214.728 305.113 214.322C305.237 213.717 305.182 213.088 304.954 212.514C304.592 211.067 304.216 209.417 303.825 207.768C302.277 201.025 301.249 195.512 301.524 195.439C301.799 195.367 303.275 200.808 304.809 207.551C305.185 209.215 305.532 210.792 305.865 212.311C306.14 213.073 306.14 213.908 305.865 214.67C305.751 214.866 305.594 215.034 305.406 215.162C305.218 215.29 305.004 215.374 304.78 215.408C304.439 215.451 304.094 215.451 303.752 215.408C302.458 215.392 301.17 215.217 299.918 214.887V214.887Z" fill="#2E384C"/>
<path d="M297.719 242.525C289.78 241.569 282.265 238.422 276.014 233.438C276.014 233.438 279.877 245.708 296.879 246.46L297.719 242.525Z" fill="#D1734A"/>
<path d="M305.72 167.599C306.805 170.247 305.098 173.387 302.681 174.834C300.132 176.155 297.341 176.943 294.477 177.149C291.609 177.374 288.867 178.419 286.576 180.159C282.641 183.733 283.682 188.841 279.703 193.486C278.777 194.791 277.505 195.811 276.029 196.43C274.553 197.049 272.934 197.242 271.354 196.987C268.171 196.539 264.047 197.277 262.44 200.952C260.834 204.628 262.773 207.333 264.553 210.705C266.333 214.076 265.855 217.535 264.843 221.225C264.119 223.887 261.833 225.971 261.326 228.691C260.516 233.032 264.22 237.865 261.717 241.425C259.214 244.984 252.861 243.407 250.069 246.721C249.056 247.893 248.477 249.615 246.987 250.078C246.06 250.208 245.116 250.035 244.295 249.586L231.272 244.073C231.605 242.727 231.952 241.367 232.3 240.021C231.337 241.008 230.153 241.752 228.846 242.191C227.539 242.63 226.146 242.751 224.783 242.545C223.42 242.338 222.125 241.81 221.007 241.004C219.888 240.197 218.978 239.136 218.351 237.908C221.079 236.324 223.606 234.414 225.875 232.222C228.115 229.99 229.476 227.026 229.709 223.873C229.84 220.053 227.771 216.189 228.928 212.557C230.592 207.362 237.61 206.06 240.707 201.603C243.601 197.436 242.631 191.388 245.626 187.264C249.114 182.489 256.479 182.272 260.473 177.902C263.178 175.008 263.801 170.667 265.769 167.15C268.317 163.017 272.299 159.968 276.954 158.584C281.578 157.235 286.396 156.672 291.207 156.92C294.818 156.75 298.416 157.471 301.683 159.018C304.823 160.769 307.196 164.358 306.458 167.888" fill="#2E384C"/>
<path d="M271.354 197.031C269.612 196.397 267.728 196.262 265.914 196.64C265.007 196.827 264.146 197.192 263.381 197.713C262.616 198.235 261.962 198.903 261.457 199.679C260.531 201.301 260.252 203.214 260.676 205.033C261.11 206.837 261.94 208.523 263.107 209.967C263.854 211.05 264.845 211.942 266.001 212.572C266.587 212.888 267.244 213.054 267.911 213.054C268.577 213.054 269.234 212.888 269.821 212.572" fill="#EB996E"/>
<path d="M268.866 207.768C269.068 207.869 268.128 208.853 266.55 208.173C265.728 207.769 265.091 207.065 264.771 206.205C264.407 205.21 264.244 204.153 264.293 203.094C264.313 201.968 264.733 200.885 265.48 200.041C265.795 199.682 266.189 199.4 266.63 199.217C267.072 199.034 267.549 198.954 268.026 198.985C269.719 199.173 270.081 200.432 269.893 200.432C269.705 200.432 269.169 199.868 268.026 199.969C267.318 200.139 266.693 200.555 266.263 201.144C265.834 201.732 265.628 202.455 265.682 203.181C265.682 205.062 266.102 206.842 267.028 207.406C267.954 207.971 268.779 207.652 268.866 207.768Z" fill="#D1734A"/>
<path d="M305.778 168.582C305.119 170.392 305.105 172.373 305.737 174.192C306.37 176.012 307.611 177.556 309.251 178.566C311.132 179.652 313.447 180.013 315.039 181.46C316.521 183.068 317.382 185.151 317.47 187.335C317.545 189.497 317.95 191.634 318.671 193.673C319.067 194.679 319.776 195.531 320.693 196.104C321.61 196.677 322.687 196.941 323.764 196.856L327.396 186.134C328.728 182.198 330.073 177.988 329.118 173.922C327.758 168.134 322.028 164.342 316.298 162.765C313.673 161.833 310.803 161.858 308.195 162.838C305.706 164.01 304.013 167.179 305.301 169.638" fill="#2E384C"/>
<path d="M235.932 245.809C235.932 245.809 236.279 245.549 236.786 244.898C237.474 243.926 237.885 242.786 237.972 241.599C238.036 239.702 237.93 237.804 237.654 235.926C237.53 234.709 237.648 233.48 238.001 232.309C238.415 230.997 239.112 229.792 240.042 228.778C241.937 226.622 244.585 224.944 246.871 222.643C248.081 221.502 248.982 220.073 249.49 218.49C249.917 216.78 249.966 214.997 249.635 213.266C249.36 211.443 248.897 209.591 248.666 207.638C248.375 205.609 248.574 203.54 249.244 201.604C249.97 199.572 251.201 197.758 252.821 196.333C254.441 194.908 256.397 193.918 258.505 193.457C262.759 192.516 267.187 193.095 270.66 191.301C272.35 190.386 273.688 188.935 274.466 187.177C275.211 185.451 275.826 183.671 276.303 181.852C276.774 180.069 277.49 178.36 278.43 176.773C279.402 175.278 280.805 174.112 282.453 173.431C285.402 172.437 288.535 172.106 291.627 172.461C294.123 172.706 296.642 172.559 299.093 172.027C300.924 171.593 302.613 170.696 303.999 169.422C304.783 168.526 305.286 167.419 305.446 166.239C305.59 165.443 305.59 164.995 305.634 165.009C305.679 165.428 305.679 165.85 305.634 166.268C305.511 167.51 305.005 168.683 304.187 169.625C302.79 170.987 301.058 171.956 299.166 172.432C296.679 173.018 294.114 173.204 291.569 172.982C288.558 172.668 285.516 173.018 282.656 174.009C281.132 174.651 279.84 175.741 278.951 177.135C278.053 178.674 277.372 180.33 276.925 182.055C276.445 183.912 275.826 185.731 275.073 187.495C274.648 188.419 274.092 189.276 273.424 190.042C272.72 190.816 271.888 191.462 270.964 191.952C267.115 193.877 262.702 193.269 258.621 194.195C256.651 194.644 254.826 195.582 253.314 196.923C251.801 198.263 250.651 199.962 249.968 201.864C249.329 203.692 249.135 205.647 249.404 207.565C249.621 209.461 250.069 211.313 250.344 213.18C250.688 215.009 250.624 216.891 250.156 218.693C249.598 220.351 248.633 221.844 247.349 223.034C244.961 225.392 242.313 227.027 240.461 229.082C239.608 229.978 238.957 231.045 238.55 232.213C238.143 233.381 237.991 234.622 238.103 235.854C238.355 237.772 238.418 239.711 238.291 241.642C238.167 242.87 237.701 244.038 236.945 245.013C236.661 245.34 236.317 245.61 235.932 245.809V245.809Z" fill="#2E384C"/>
<path d="M313.491 254.23C313.733 253.989 313.96 253.733 314.171 253.463C314.705 252.643 315.006 251.693 315.039 250.714C315.155 249.441 314.822 247.82 314.909 245.997C315.163 243.857 316.049 241.842 317.455 240.209C318.801 238.342 320.595 236.403 321.073 233.799C321.55 231.194 320.436 228.401 319.886 225.363C319.566 223.764 319.631 222.113 320.074 220.544C320.613 218.98 321.368 217.499 322.317 216.145C323.243 214.698 324.271 213.396 325.067 211.92C325.934 210.472 326.431 208.831 326.514 207.145C326.445 205.459 325.887 203.83 324.907 202.457C323.917 201.043 323.114 199.506 322.52 197.884C321.536 194.513 322.303 191.214 322.52 188.218C322.678 186.774 322.649 185.315 322.433 183.877C322.221 182.53 321.685 181.253 320.87 180.159C319.237 178.285 317.231 176.772 314.981 175.716C313.086 174.813 311.283 173.727 309.598 172.475C308.302 171.523 307.214 170.317 306.4 168.93C305.898 168.044 305.605 167.053 305.547 166.036C305.52 165.687 305.544 165.336 305.619 164.994C305.619 164.994 305.619 165.356 305.706 166.022C305.818 166.997 306.144 167.936 306.661 168.771C307.486 170.083 308.557 171.223 309.815 172.128C311.505 173.328 313.302 174.37 315.184 175.239C317.533 176.293 319.63 177.837 321.333 179.768C322.232 180.921 322.833 182.278 323.084 183.718C323.323 185.221 323.367 186.748 323.214 188.262C323.012 191.315 322.303 194.556 323.214 197.653C323.797 199.193 324.575 200.652 325.53 201.994C326.592 203.48 327.191 205.247 327.252 207.073C327.169 208.887 326.637 210.652 325.703 212.21C324.864 213.743 323.837 215.104 322.925 216.551C321.992 217.856 321.252 219.289 320.726 220.805C320.298 222.262 320.229 223.801 320.523 225.29C321.015 228.184 322.187 231.078 321.637 233.972C321.357 235.298 320.811 236.554 320.031 237.662C319.308 238.733 318.584 239.673 317.846 240.556C316.481 242.087 315.591 243.983 315.285 246.011C315.155 247.806 315.444 249.412 315.285 250.729C315.216 251.745 314.854 252.72 314.243 253.536C314.05 253.823 313.793 254.061 313.491 254.23V254.23Z" fill="#2E384C"/>
<path d="M221.158 239.023C221.158 239.023 221.636 239.023 222.533 239.124C223.844 239.152 225.146 238.9 226.353 238.386C228.286 237.597 229.953 236.272 231.157 234.566C232.691 232.288 233.586 229.639 233.747 226.897C234.094 223.858 233.327 220.559 233.241 216.869C233.14 214.935 233.565 213.01 234.471 211.298C235.673 209.646 237.237 208.29 239.043 207.334C240.843 206.397 242.309 204.926 243.239 203.123C243.903 201.092 244.216 198.964 244.165 196.828C244.189 194.525 244.63 192.245 245.468 190.1C245.923 188.986 246.586 187.97 247.421 187.105C248.357 186.276 249.513 185.739 250.749 185.556C253.151 185.137 255.481 185.383 257.724 185.137C259.9 184.98 261.951 184.057 263.512 182.532C265.01 181.011 266.242 179.251 267.158 177.323C268.128 175.442 268.88 173.503 269.806 171.651C270.664 169.827 271.759 168.124 273.062 166.586C274.302 165.094 275.937 163.981 277.779 163.374C279.524 162.874 281.374 162.874 283.118 163.374C284.682 163.817 286.207 164.388 287.677 165.081C290.1 166.384 292.745 167.223 295.476 167.556C297.549 167.657 299.621 167.337 301.568 166.615C303.23 165.993 304.786 165.119 306.184 164.025C305.876 164.37 305.531 164.68 305.156 164.951C304.089 165.755 302.915 166.408 301.669 166.89C299.697 167.677 297.583 168.047 295.461 167.975C292.672 167.683 289.962 166.868 287.474 165.573C286.025 164.897 284.519 164.35 282.974 163.938C281.338 163.468 279.603 163.468 277.967 163.938C276.242 164.528 274.714 165.585 273.554 166.991C272.304 168.5 271.253 170.163 270.428 171.94C268.677 175.529 267.317 179.812 264.018 183.039C263.172 183.853 262.193 184.519 261.124 185.006C260.043 185.47 258.895 185.758 257.724 185.86C255.394 186.106 253.05 185.86 250.807 186.265C249.732 186.433 248.728 186.905 247.913 187.625C247.151 188.424 246.542 189.356 246.119 190.375C245.33 192.442 244.909 194.631 244.874 196.843C244.919 199.064 244.582 201.277 243.876 203.383C242.884 205.313 241.317 206.885 239.39 207.883C237.684 208.784 236.201 210.054 235.049 211.602C234.195 213.211 233.79 215.021 233.877 216.84C233.877 220.4 234.673 223.8 234.297 226.969C234.09 229.79 233.131 232.503 231.519 234.826C230.255 236.559 228.523 237.894 226.527 238.675C225.278 239.177 223.933 239.39 222.591 239.298C222.103 239.268 221.622 239.176 221.158 239.023V239.023Z" fill="#2E384C"/>
<path d="M327.498 183.864C327.379 182.408 326.971 180.992 326.297 179.696C325.504 178.334 324.458 177.135 323.215 176.166C321.664 175.003 319.978 174.031 318.194 173.272C316.299 172.389 314.432 171.608 312.826 170.711C311.376 169.928 310.038 168.954 308.847 167.817C308.045 167.048 307.375 166.154 306.864 165.169C306.637 164.827 306.498 164.434 306.459 164.025C307.217 165.278 308.142 166.422 309.208 167.426C310.416 168.45 311.742 169.324 313.159 170.03C314.736 170.87 316.588 171.622 318.512 172.505C320.351 173.314 322.081 174.349 323.664 175.587C324.952 176.63 326.007 177.931 326.76 179.407C327.279 180.402 327.575 181.498 327.629 182.619C327.676 183.039 327.632 183.463 327.498 183.864Z" fill="#2E384C"/>
<path d="M294.825 190.808C294.68 190.982 294.174 190.808 293.378 190.562C292.31 190.316 291.218 190.19 290.122 190.186C289.022 190.174 287.925 190.29 286.852 190.533C286.027 190.721 285.521 190.938 285.405 190.779C285.289 190.62 285.593 190.056 286.476 189.549C287.614 188.969 288.873 188.666 290.151 188.666C291.429 188.666 292.688 188.969 293.826 189.549C294.579 190.099 294.897 190.678 294.825 190.808Z" fill="#2E384C"/>
<path d="M315.893 193.659C315.82 194.064 314.316 194.194 312.507 193.934C310.698 193.673 309.294 193.182 309.294 192.704C309.294 192.226 310.872 192.183 312.68 192.444C314.489 192.704 315.951 193.254 315.893 193.659Z" fill="#2E384C"/>
<path d="M265.249 212.108C265.249 212.108 265.393 212.21 265.611 212.47C265.922 212.851 266.185 213.269 266.392 213.715C267.141 215.373 267.363 217.222 267.029 219.011C266.559 221.614 265.685 224.129 264.438 226.463C263.747 227.798 263.523 229.326 263.802 230.804C264.312 232.355 265.012 233.837 265.885 235.217C266.761 236.666 267.144 238.36 266.977 240.045C266.81 241.73 266.102 243.315 264.959 244.564C263.985 245.678 262.692 246.466 261.255 246.822C260.041 247.074 258.805 247.209 257.565 247.227C255.824 247.179 254.105 247.62 252.602 248.5C252.087 248.876 251.633 249.33 251.256 249.846C251.256 249.846 251.256 249.658 251.444 249.368C251.696 248.94 252.031 248.566 252.428 248.269C253.917 247.256 255.678 246.716 257.478 246.72C258.682 246.668 259.878 246.508 261.053 246.243C262.371 245.895 263.553 245.153 264.438 244.116C265.409 242.985 266.032 241.599 266.233 240.122C266.391 238.529 266.036 236.927 265.22 235.55C264.326 234.107 263.621 232.556 263.122 230.934C262.835 229.325 263.089 227.666 263.845 226.217C264.467 224.77 265.147 223.626 265.567 222.397C265.998 221.271 266.327 220.108 266.551 218.924C266.911 217.224 266.775 215.456 266.16 213.83C265.654 212.687 265.191 212.152 265.249 212.108Z" fill="#2E384C"/>
<path d="M332.447 251.062C332.157 251.195 331.839 251.255 331.521 251.236C331.06 251.207 330.61 251.086 330.197 250.88C329.784 250.674 329.418 250.386 329.119 250.035C328.621 249.494 328.256 248.846 328.05 248.14C327.844 247.435 327.804 246.692 327.932 245.969C328.383 244.1 329.357 242.399 330.739 241.063C332.392 239.557 333.85 237.851 335.08 235.984C335.669 234.924 335.954 233.723 335.905 232.511C335.82 231.22 335.517 229.953 335.008 228.764C333.708 226.19 332.548 223.548 331.535 220.849C331.086 219.318 331.086 217.691 331.535 216.16C332.107 214.682 332.83 213.266 333.691 211.935C334.515 210.691 334.845 209.185 334.617 207.71C334.227 206.307 333.455 205.04 332.389 204.049C331.39 202.978 330.291 201.98 329.365 200.837C328.432 199.715 327.76 198.401 327.397 196.988C326.832 194.39 326.872 191.697 327.512 189.116C328.019 186.714 328.713 184.544 329.148 182.532C330.059 179.366 329.897 175.988 328.684 172.924C328.18 171.851 327.495 170.872 326.659 170.03C326.659 170.03 326.659 170.03 326.861 170.161C327.049 170.293 327.223 170.444 327.382 170.609C328.042 171.277 328.572 172.062 328.945 172.924C329.567 174.219 329.944 175.617 330.059 177.048C330.189 178.936 330.043 180.832 329.625 182.677C329.205 184.717 328.554 186.902 328.077 189.275C327.504 191.765 327.504 194.353 328.077 196.843C328.401 198.156 329.019 199.378 329.885 200.417C330.768 201.502 331.853 202.472 332.895 203.572C334.054 204.642 334.9 206.007 335.341 207.522C335.593 209.168 335.238 210.85 334.342 212.254C333.493 213.538 332.775 214.905 332.201 216.334C331.784 217.751 331.784 219.258 332.201 220.675C333.191 223.347 334.322 225.965 335.587 228.518C336.121 229.786 336.43 231.137 336.498 232.511C336.543 233.836 336.222 235.148 335.572 236.303C334.295 238.198 332.783 239.924 331.072 241.439C329.731 242.687 328.768 244.286 328.294 246.055C328.151 246.721 328.167 247.411 328.341 248.07C328.514 248.729 328.84 249.337 329.292 249.846C329.83 250.533 330.613 250.984 331.477 251.105C332.128 251.062 332.447 250.975 332.447 251.062Z" fill="#2E384C"/>
<path d="M389.226 270.567C388.284 269.345 387.233 268.212 386.086 267.181C384.793 266.347 383.433 265.621 382.02 265.01C382.842 264.961 383.665 265.074 384.443 265.345C385.22 265.616 385.936 266.038 386.549 266.588C387.242 267.035 387.836 267.618 388.297 268.302C388.757 268.986 389.073 269.757 389.226 270.567V270.567Z" fill="#D1734A"/>
<path d="M367.652 349.862C366.612 347.801 365.904 345.589 365.554 343.307C364.97 341.065 364.76 338.743 364.931 336.434C365.508 338.645 365.962 340.886 366.291 343.148C366.878 345.357 367.332 347.599 367.652 349.862V349.862Z" fill="#D1734A"/>
<path d="M275.377 333.642C277.915 332.796 280.149 331.226 281.805 329.125C283.461 327.024 284.466 324.485 284.696 321.82C285.477 314.281 280.355 307.581 273.424 306.843C266.493 306.105 260.111 311.647 259.33 319.186C259.008 321.865 259.485 324.58 260.7 326.989C261.915 329.399 263.814 331.396 266.16 332.73C255.307 333.294 250.055 339.965 247.494 345.927C251.506 351.576 257.418 355.593 264.149 357.242L271.962 358.052C278.983 357.811 285.673 355.011 290.773 350.181C289.485 343.828 285.709 336.29 275.377 333.642Z" fill="white"/>
<g opacity="0.3">
<path opacity="0.3" d="M217.671 328.576L224.095 321.949C224.095 321.949 221.317 369.845 219.422 375.604C217.526 381.363 207.6 400.535 207.6 400.535L216.166 374.33L217.671 328.576Z" fill="#2E384C"/>
</g>
<path d="M231.894 313.833C232.039 313.977 226.396 320.098 219.277 327.507C212.157 334.915 206.254 340.819 206.095 340.674C205.935 340.53 211.608 334.409 218.727 326.986C225.846 319.563 231.75 313.688 231.894 313.833Z" fill="#2E384C"/>
<path d="M321.71 310.085C321.736 310.568 321.712 311.053 321.637 311.532C321.55 312.487 321.391 313.876 321.16 315.598C320.697 319.013 319.915 323.73 318.845 328.881C317.774 334.033 316.602 338.678 315.661 342.006C315.184 343.67 314.779 345.001 314.475 345.927C314.361 346.433 314.176 346.92 313.925 347.374C313.962 346.884 314.05 346.399 314.185 345.927C314.46 344.827 314.764 343.511 315.14 341.962C315.951 338.605 317.036 333.975 318.107 328.824C319.177 323.672 320.031 318.998 320.639 315.598C320.914 314.035 321.145 312.704 321.348 311.575C321.398 311.064 321.519 310.562 321.71 310.085V310.085Z" fill="#2E384C"/>
<path d="M292.582 218.793C292.908 218.515 293.289 218.309 293.7 218.187C294.111 218.064 294.543 218.029 294.968 218.083C295.393 218.137 295.802 218.28 296.169 218.501C296.537 218.722 296.854 219.017 297.1 219.368C297.347 219.718 297.517 220.117 297.601 220.537C297.685 220.957 297.681 221.39 297.588 221.809C297.495 222.227 297.316 222.622 297.062 222.967C296.808 223.312 296.484 223.601 296.113 223.814C295.734 224.017 295.317 224.139 294.889 224.173C294.46 224.206 294.029 224.151 293.623 224.01C293.217 223.869 292.845 223.645 292.53 223.353C292.215 223.061 291.963 222.706 291.792 222.312C291.621 221.918 291.533 221.493 291.534 221.063C291.535 220.633 291.625 220.209 291.798 219.815C291.972 219.422 292.225 219.069 292.542 218.779C292.858 218.488 293.232 218.266 293.638 218.127" fill="white"/>
<path d="M292.886 215.567C293.262 215.567 292.886 218.113 294.825 220.183C296.764 222.252 299.455 222.368 299.426 222.715C299.397 223.062 298.761 223.12 297.617 222.99C296.141 222.812 294.777 222.115 293.768 221.022C292.805 219.975 292.286 218.595 292.321 217.173C292.35 216.102 292.712 215.523 292.886 215.567Z" fill="#2E384C"/>
<path d="M260.777 178.09C262.433 176.041 263.499 173.58 263.859 170.97C263.869 169.104 263.199 167.297 261.974 165.889C260.749 164.48 259.053 163.565 257.203 163.316C255.334 163.185 253.478 163.704 251.948 164.785C250.419 165.866 249.31 167.443 248.81 169.249C248.417 171.081 248.627 172.992 249.41 174.695C250.192 176.398 251.505 177.802 253.151 178.697C254.833 179.524 256.727 179.816 258.579 179.534C260.431 179.252 262.153 178.41 263.512 177.12" fill="#2E384C"/>
<path d="M264.091 170.58C264.288 172.469 263.772 174.363 262.644 175.891C261.715 177.55 260.197 178.8 258.39 179.392C259.726 178.212 260.938 176.898 262.007 175.471C262.867 173.916 263.566 172.277 264.091 170.58V170.58Z" fill="#2E384C"/>
<path d="M259.634 178.712C259.691 175.999 259.37 173.291 258.679 170.667C257.757 168.088 256.476 165.652 254.873 163.432C254.873 163.432 255.683 163.938 256.638 165.125C257.879 166.682 258.817 168.459 259.402 170.363C260 172.26 260.246 174.252 260.126 176.238C260.146 177.088 259.978 177.933 259.634 178.712V178.712Z" fill="#2E384C"/>
<path d="M335.345 447.71C355.635 447.71 372.084 431.261 372.084 410.971C372.084 390.68 355.635 374.231 335.345 374.231C315.054 374.231 298.605 390.68 298.605 410.971C298.605 431.261 315.054 447.71 335.345 447.71Z" fill="#43947E"/>
<g opacity="0.3">
<path opacity="0.3" d="M335.345 447.71C355.635 447.71 372.084 431.261 372.084 410.971C372.084 390.68 355.635 374.231 335.345 374.231C315.054 374.231 298.605 390.68 298.605 410.971C298.605 431.261 315.054 447.71 335.345 447.71Z" fill="#2E384C"/>
</g>
<path d="M335.345 440.894C355.635 440.894 372.084 424.446 372.084 404.155C372.084 383.865 355.635 367.416 335.345 367.416C315.054 367.416 298.605 383.865 298.605 404.155C298.605 424.446 315.054 440.894 335.345 440.894Z" fill="#43947E"/>
<path d="M335.345 425.889C334.303 425.889 333.449 416.151 333.449 404.184C333.449 392.218 334.303 382.479 335.345 382.479C336.387 382.479 337.226 392.218 337.226 404.184C337.226 416.151 336.372 425.889 335.345 425.889Z" fill="white"/>
<path d="M357.136 404.155C357.136 405.196 347.413 406.036 335.431 406.036C323.45 406.036 313.727 405.196 313.727 404.155C313.727 403.113 323.45 402.273 335.431 402.273C347.413 402.273 357.136 403.113 357.136 404.155Z" fill="white"/>
</svg>
