<svg width="705" height="824" viewBox="0 0 705 824" fill="none" xmlns="http://www.w3.org/2000/svg">
<g opacity="0.6">
<path d="M823.865 411.537V411.331C823.865 289.56 770.852 180.203 686.668 105L686.257 104.657C685.218 103.537 684.056 102.536 682.794 101.674L682.725 101.64C607.957 35.9886 511.807 -0.127266 412.309 0.0666336C308.339 0.0666336 213.423 38.6795 141.069 102.394L141.515 102.017C140.643 102.678 139.839 103.425 139.115 104.246V104.28C95.618 142.797 60.8015 190.116 36.9717 243.105C13.1419 296.093 0.84273 353.54 0.889046 411.64C0.889046 533.377 53.8339 642.734 137.949 717.971L138.36 718.314C139.45 719.549 140.668 720.665 141.995 721.64L142.064 721.675C216.812 787.229 312.889 823.291 412.309 823.111C512.193 823.264 608.682 786.867 683.582 720.783L683.136 721.16C727.387 682.686 762.858 635.157 787.149 581.786C811.44 528.416 823.985 470.45 823.934 411.811V411.571L823.865 411.537ZM670.86 679.187C650.477 662.698 628.555 648.205 605.399 635.91L603.171 634.813C624.191 574.219 636.844 504.366 638.044 431.701V431.152H784.157C779.229 525.16 738.768 613.785 670.963 679.084L670.86 679.187ZM431.991 627.577C475.986 629.943 517.101 639.614 555.026 655.354L552.557 654.462C522.176 723.732 479.415 771.329 431.991 781.789V627.577ZM431.991 588.347V431.152H598.919C597.594 496.247 586.307 560.756 565.451 622.433L566.788 617.941C524.215 600.442 478.935 590.441 432.952 588.381L432.026 588.347H431.991ZM431.991 391.922V234.727C479.215 232.572 525.707 222.234 569.394 204.173L566.685 205.167C585.717 260.686 597.41 324.675 598.919 391.202V391.922H431.991ZM431.991 195.497V41.3543C479.415 51.8134 522.176 99.205 552.557 168.681C517.101 183.426 475.986 193.062 432.986 195.463L431.991 195.497ZM529.857 58.3288C570.264 71.8068 608.053 92.1292 641.576 118.409L640.787 117.791C625.597 129.725 608.554 140.973 590.586 150.746L588.666 151.706C574.146 117.439 554.183 85.7444 529.548 57.8488L529.857 58.226V58.3288ZM392.694 41.4572V195.497C350.397 193.339 308.782 183.944 269.659 167.721L272.128 168.612C302.647 99.3421 345.339 51.7791 392.763 41.32L392.694 41.4572ZM236.055 151.603C217.466 141.602 199.755 130.051 183.11 117.071L183.933 117.688C216.479 92.1804 253.087 72.3337 292.223 58.9804L294.829 58.1917C270.84 85.3316 251.293 116.094 236.912 149.34L236.055 151.569V151.603ZM392.763 234.693V391.888H225.836C227.345 324.641 239.038 260.652 259.406 200.641L258.069 205.133C300.626 222.604 345.88 232.593 391.837 234.659L392.763 234.693ZM392.763 431.118V588.313C345.539 590.468 299.048 600.806 255.36 618.867L258.069 617.872C239.038 562.388 227.345 498.365 225.836 431.838V431.118H392.763ZM392.763 627.543V781.686C345.339 771.227 302.578 723.835 272.197 654.359C307.653 639.614 348.768 630.012 391.769 627.611L392.763 627.577V627.543ZM295.035 764.711C254.638 751.273 216.85 730.997 183.315 704.769L184.138 705.386C199.329 693.452 216.372 682.204 234.34 672.431L236.26 671.471C250.658 705.752 270.621 737.419 295.343 765.191L295.035 764.848V764.711ZM588.7 671.437C608.588 682.239 625.631 693.452 641.645 705.969L640.822 705.352C608.275 730.86 571.667 750.706 532.532 764.06L529.926 764.848C553.915 737.721 573.462 706.97 587.843 673.734L588.7 671.505V671.437ZM784.157 391.922H638.044C636.993 320.97 624.749 250.629 601.765 183.495L603.171 188.227C627.394 175.473 650.326 160.406 671.649 143.236L670.826 143.853C738.491 208.906 778.966 297.202 784.088 390.928L784.122 391.888L784.157 391.922ZM153.894 143.888C173.645 159.936 195.832 174.648 219.355 187.164L221.584 188.261C200.564 248.856 187.91 318.708 186.71 391.373V391.922H40.5634C45.4907 297.914 85.9522 209.29 153.757 143.99L153.86 143.888H153.894ZM40.5977 431.152H186.71C187.761 502.104 200.005 572.445 222.99 639.579L221.584 634.847C195.832 648.53 173.68 663.241 153.105 679.838L153.928 679.221C86.2638 614.168 45.788 525.872 40.6662 432.147L40.6319 431.186L40.5977 431.152Z" fill="#DEEFE6"/>
<path d="M290.848 254.831L283.094 261.508L267.587 251.492H246.393L240.707 237.023V212.538H218.997L208.142 205.304L218.997 190.279V171.359H203.489L193.151 190.279L173.508 194.174L158.518 185.827L154.383 166.907L158.518 139.083H147.663L132.155 110.146L120.783 115.154L92.87 92.8954L72.1935 96.7907L51 89L54.6184 101.243L106.31 166.907V179.706L120.783 194.174L158.518 212.538L173.508 205.304L190.05 225.894L211.76 231.458L234.504 254.831L257.248 266.517L267.587 261.508L277.925 273.194V295.454L257.248 320.495L261.901 337.189L254.147 343.311L257.248 352.771L283.094 412.314L321.863 439.025L314.109 516.375L318.244 539.747L302.22 582.04L294.983 657.164V717.821L307.906 741.193L331.167 759L345.124 747.87L338.404 733.402L327.549 717.821V703.352L338.404 699.457V687.771L350.293 680.537V667.738H345.124C343.918 665.512 341.505 660.281 341.505 657.164C341.505 654.048 347.364 652.156 350.293 651.6L358.563 639.914V621.55L354.945 612.646L373.554 608.751V595.395H391.646L404.569 578.145V568.684L396.298 550.321L404.569 559.224H423.178L436.617 539.747L444.888 534.739L453.676 516.375L456.777 503.576L459.878 490.221L471.251 477.978L490.376 472.97L500.715 468.518L511.053 452.937L516.222 439.025V407.306L527.594 391.724L540 370.022V352.771L527.594 349.432L511.053 337.189L490.376 333.294L453.676 320.495L444.888 307.696L432.999 284.324L404.569 279.316L381.308 261.508L368.385 247.04H336.336L329.616 243.701H315.66V254.831H311.007V243.701L315.66 237.023H311.007L298.602 243.701H290.848V254.831Z" fill="#5BAE81"/>
</g>
</svg>
