<svg width="32" height="32" viewBox="0 0 32 32" fill="none" xmlns="http://www.w3.org/2000/svg">
<rect width="32" height="32" fill="white" fill-opacity="0.01"/>
<path d="M8 15.9999C8 15.2639 8.608 14.6666 9.336 14.6666H22.664C23.0176 14.6666 23.3568 14.8071 23.6068 15.0571C23.8569 15.3072 23.9973 15.6463 23.9973 15.9999C23.9973 16.3535 23.8569 16.6927 23.6068 16.9427C23.3568 17.1928 23.0176 17.3333 22.664 17.3333H9.336C9.16063 17.3338 8.98688 17.2997 8.82473 17.2329C8.66257 17.1661 8.5152 17.0679 8.39108 16.9441C8.26695 16.8202 8.1685 16.673 8.10139 16.511C8.03428 16.349 7.99982 16.1753 8 15.9999ZM8 21.3333C8 20.5973 8.608 19.9999 9.336 19.9999H22.664C23.0176 19.9999 23.3568 20.1404 23.6068 20.3904C23.8569 20.6405 23.9973 20.9796 23.9973 21.3333C23.9973 21.6869 23.8569 22.026 23.6068 22.2761C23.3568 22.5261 23.0176 22.6666 22.664 22.6666H9.336C9.16063 22.6671 8.98688 22.633 8.82473 22.5662C8.66257 22.4994 8.5152 22.4013 8.39108 22.2774C8.26695 22.1535 8.1685 22.0063 8.10139 21.8443C8.03428 21.6823 7.99982 21.5086 8 21.3333ZM8 10.6666C8 9.93059 8.608 9.33325 9.336 9.33325H22.664C23.0176 9.33325 23.3568 9.47373 23.6068 9.72378C23.8569 9.97382 23.9973 10.313 23.9973 10.6666C23.9973 11.0202 23.8569 11.3593 23.6068 11.6094C23.3568 11.8594 23.0176 11.9999 22.664 11.9999H9.336C9.16063 12.0004 8.98688 11.9663 8.82473 11.8995C8.66257 11.8328 8.5152 11.7346 8.39108 11.6107C8.26695 11.4869 8.1685 11.3397 8.10139 11.1777C8.03428 11.0156 7.99982 10.842 8 10.6666Z" fill="white"/>
</svg>
