<?xml version="1.0" encoding="utf-8"?>
<!-- Generator: Adobe Illustrator 25.4.1, SVG Export Plug-In . SVG Version: 6.00 Build 0)  -->
<svg version="1.1" id="Camada_1" xmlns="http://www.w3.org/2000/svg" xmlns:xlink="http://www.w3.org/1999/xlink" x="0px" y="0px"
	 viewBox="0 0 377 432" style="enable-background:new 0 0 377 432;" xml:space="preserve">
<style type="text/css">
	.st0{fill:#FFFFFF;}
	.st1{fill:#1C1C1C;}
	.st2{fill-rule:evenodd;clip-rule:evenodd;fill:#1C1C1C;}
	.st3{fill:#BCBCBB;fill-opacity:0.5;}
</style>
<g>
	<circle class="st0" cx="216" cy="208" r="200"/>
</g>
<path class="st1" d="M289.3,202.7c0,46.1-37.7,83.5-84.2,83.5c-46.5,0-84.2-37.4-84.2-83.5c0-46.1,37.7-83.5,84.2-83.5
	C251.6,119.2,289.3,156.6,289.3,202.7z"/>
<path class="st1" d="M170.7,272.3l-48.4,44.4v-42.8v-65.2L170.7,272.3z"/>
<path class="st2" d="M121.8,317.9c-0.5-0.2-0.8-0.7-0.8-1.2v-108c0-0.6,0.4-1.1,0.9-1.3c0.5-0.2,1.1,0,1.5,0.5l48.4,63.6
	c0.4,0.5,0.3,1.3-0.2,1.8l-48.4,44.4C122.8,318,122.3,318.1,121.8,317.9z M122.3,208.7l48.4,63.6l-48.4,44.4V208.7z"/>
<path class="st3" d="M310.5,183.5c0,47.2-38.3,85.5-85.5,85.5s-85.5-38.3-85.5-85.5S177.8,98,225,98S310.5,136.3,310.5,183.5z"/>
</svg>
